<?xml version="1.0" encoding="UTF-8"?>
<svg id="Lag_1" xmlns="http://www.w3.org/2000/svg" version="1.1" viewBox="0 0 16 16">
  <!-- Generator: Adobe Illustrator 30.0.0, SVG Export Plug-In . SVG Version: 2.1.1 Build 123)  -->
  <defs>
    <style>
      .st0 {
        font-family: Didot, Didot;
        font-size: 1.5px;
      }

      .st0, .st1 {
        fill: #fff;
      }

      .st2 {
        fill: #98918d;
      }

      .st3 {
        stroke: #98918d;
        stroke-miterlimit: 10;
        stroke-width: .2px;
      }

      .st3, .st4 {
        fill: #281f1b;
      }

      .st5 {
        fill: #736357;
      }
    </style>
  </defs>
  <path class="st1" d="M11.9,10.3c.3-.1.5-.2.7-.4.6-.7-.2-.9-.5-1.2,0,.2,0,1.5-.1,1.6Z"/>
  <circle class="st3" cx="8" cy="8" r="6.9"/>
  <path class="st2" d="M7.5,5.9c.3,0,.3,0,.8,0,.6,0,.5,0,.8,0,.3,0,.5,0,.5,0,0,0,0,.2,0,.3,0,0,.1,0,.3,0,.1,0,.2,0,.3,0,0,0,.1,0,.2.1.4.3.2.9-.1,1.1,0,0-.2.1-.4.2-.3,0-.3,0-.5,0-.2,0-.1.2-.4.5,0,0-.2.2-.3.2-.2.1-.2.2-.4.2-.1,0-.1,0-.4,0-.3,0-.3,0-.5,0-.2,0-.3,0-.4,0-.2,0-.3,0-.5-.1-.1,0-.3-.1-.4-.3,0,0,0-.1-.2-.3-.1-.2-.2-.3-.2-.3,0,0,0-.1,0-.5,0-.3,0-.3,0-.6,0-.4,0-.6,0-.6,0,0,.1,0,.2,0,.3,0,.4,0,.8,0s.3,0,.5,0,.2,0,.3,0c0,0,.1.3.2.4s0,0,0,0,0,0,0,.1c0,0-.1.1-.2.2,0,.1.1.3.2.4s0,0,0,.1,0,0,0,.1,0,0,0,0c0,0-.2.2-.2.3,0,0,.1,0,.2,0,0,0,.1-.1.2-.2,0,0,0,0,0,0,0,0,0,0,0-.1,0,0,0-.2,0-.3s-.1-.3-.1-.3c.1-.1.2-.3.4-.4,0-.2-.1-.3-.2-.5-.1,0-.2,0-.3,0Z"/>
  <path class="st4" d="M9.8,6.4c0,0,0,.2,0,.3,0,.3,0,.5-.1.7.3,0,.7,0,.8-.4,0-.2,0-.3,0-.5s-.5-.4-.6-.2Z"/>
  <path class="st5" d="M7,3.6c0,0-.1.3,0,.5,0,0,.1,0,.3.2.1.1.2.1.2.2,0,0,0,.1.1.2,0,0,0,.2,0,.3,0,0,0,0-.1.1,0,0,0,0-.1.1,0,0-.2,0-.2,0,0,0,.2-.2.1-.4,0-.1-.1-.2-.1-.2-.1-.1-.2,0-.3-.1-.1-.1-.2-.3-.2-.3,0,0,0-.1,0-.3,0-.3.3-.5.3-.5Z"/>
  <path class="st5" d="M8.1,2.7c-.4.3-.6.4-.6.7,0,0,0,.2,0,.4,0,0,0,.2,0,.3,0,.1.1.1.3.3,0,0,0,0,.2.3,0,.1.1.2.1.2,0,.1,0,.2,0,.3,0,.2-.1.3-.1.3,0,0,.3-.1.5-.3,0,0,.1-.2.1-.3,0,0,0-.2,0-.4,0,0,0,0-.3-.3-.3-.2-.3-.2-.3-.3,0-.1,0-.2,0-.4,0,0,0-.1.2-.4.1-.3.2-.4.2-.4,0,0,0,0-.2,0Z"/>
  <text class="st0" transform="translate(2.4 10.6)"><tspan x="0" y="0">KAFFEKRISEN</tspan></text>
</svg>