<?xml version="1.0" encoding="UTF-8"?>
<svg id="Lag_1" xmlns="http://www.w3.org/2000/svg" version="1.1" viewBox="0 0 16 16">
  <!-- Generator: Adobe Illustrator 30.0.0, SVG Export Plug-In . SVG Version: 2.1.1 Build 123)  -->
  <defs>
    <style>
      .st0 {
        font-family: Didot, Didot;
        font-size: 1.5px;
      }

      .st0, .st1 {
        isolation: isolate;
      }

      .st0, .st2 {
        fill: #fff;
      }

      .st3 {
        fill: #b2a99a;
      }

      .st4 {
        stroke: #98918d;
        stroke-miterlimit: 10;
        stroke-width: .2px;
      }

      .st4, .st5 {
        fill: #281f1b;
      }

      .st6 {
        fill: #736357;
      }
    </style>
  </defs>
  <path class="st2" d="M11.9,10.3c.3-.1.5-.2.7-.4.6-.7-.2-.9-.5-1.2,0,.2,0,1.5-.1,1.6h0Z"/>
  <circle class="st4" cx="8" cy="8" r="6.9"/>
  <path class="st5" d="M9.8,6.4v.3c0,.3,0,.5-.1.7.3,0,.7,0,.8-.4v-.5c0-.2-.5-.4-.6-.2h0Z"/>
  <g class="st1">
    <text class="st0" transform="translate(2.4 10.6)"><tspan x="0" y="0">KAFFEKRISEN</tspan></text>
  </g>
  <path class="st3" d="M5.6,6.1l.2,1.1c0,.3,0,.6.3.8.2.2.5.2.8.2.5,0,1.1,0,1.6.1.4,0,.7,0,1-.1.2-.1.3-.3.4-.5s.4,0,.6-.1c.2,0,.4-.3.3-.5,0-.2-.1-.3-.3-.4s-.3,0-.4-.1,0,0,0,0,0-.2,0-.2c-.6,0-1.3,0-1.9-.1.2,0,.2.3.2.4s-.2.3-.3.3l.2.4-.7-.4.5-.4c0,0-.3-.3-.4-.4-.2,0-.3,0-.5,0-.5,0-1,0-1.5,0Z"/>
  <path class="st5" d="M10.1,6.8v.5c0,0,.2,0,.3,0s.2-.2.2-.3c0,0-.1-.2-.2-.2s-.2,0-.3,0"/>
  <path class="st6" d="M7.4,3.7c0,.3-.2.5-.1.8,0,.4.3.7.7.8-.3-.2-.4-.6-.3-.9,0-.3.2-.5.2-.8,0-.4-.2-.9-.6-1.1,0,0,.2.4.2.5,0,.2,0,.4,0,.6Z"/>
  <path class="st6" d="M8.1,4.2c0,.1-.2.2-.2.4,0,.2.1.4.3.5s.3.3.3.5c.2-.1.2-.4.1-.5s-.2-.4-.2-.6c0-.2,0-.5,0-.7s0-.5-.1-.6c0,0,0,.4,0,.5,0,.2,0,.4-.2.5Z"/>
</svg>