<svg width="211" height="45" viewBox="0 0 211 45" fill="none" xmlns="http://www.w3.org/2000/svg">
<rect width="211" height="45" fill="black"/>
<g filter="url(#filter0_g_0_1)">
<mask id="path-1-outside-1_0_1" maskUnits="userSpaceOnUse" x="5" y="6" width="201" height="34" fill="black">
<rect fill="white" x="5" y="6" width="201" height="34"/>
<path d="M24.4351 32.524L35.0551 7H35.4151L46.0711 32.524H41.1751L39.7711 28.888H30.8071L29.4751 32.524H24.4351ZM34.6231 18.556L32.1031 25.396H38.4391L35.8111 18.556L35.1991 16.54L34.6231 18.556Z"/>
<path d="M48.0469 32.524V7.432H61.1509V11.392H52.6549V17.98H60.0709V22.012H52.6549V32.524H48.0469Z"/>
<path d="M64.3945 32.524V7.432H77.4985V11.392H69.0025V17.98H76.4185V22.012H69.0025V32.524H64.3945Z"/>
<path d="M80.9787 32.524V7.432H94.0827V11.356H85.4787V17.224H92.3187V21.04H85.4787V28.456H94.8027V32.524H80.9787Z"/>
<path d="M98.6719 38.024V7.432H103.244V19.924L111.236 7.432H116.528L107.978 19.888L117.104 32.524H111.344L103.244 20.482V38.024H98.6719Z"/>
<path d="M137.03 32.524H131.45L125.006 23.452V32.524H120.434V7.432H127.418C129.122 7.432 130.646 7.684 131.99 8.188C133.334 8.68 134.396 9.508 135.176 10.672C135.956 11.836 136.346 13.42 136.346 15.424C136.346 16.516 136.16 17.644 135.788 18.808C135.428 19.96 134.822 20.992 133.97 21.904C133.13 22.816 131.99 23.452 130.55 23.812L137.03 32.524ZM125.006 21.184H126.914C127.97 21.184 128.852 20.938 129.56 20.446C130.28 19.942 130.82 19.288 131.18 18.484C131.552 17.668 131.738 16.792 131.738 15.856C131.738 14.236 131.366 13.03 130.622 12.238C129.878 11.434 128.606 11.032 126.806 11.032H125.006V21.184Z"/>
<path d="M141.131 32.524V7.432H145.739V32.524H141.131Z"/>
<path d="M157.3 32.92C155.536 32.92 153.994 32.626 152.674 32.038C151.354 31.45 150.388 30.832 149.776 30.184L151.612 26.404C151.864 26.728 152.26 27.094 152.8 27.502C153.352 27.91 153.988 28.27 154.708 28.582C155.44 28.882 156.196 29.032 156.976 29.032C157.876 29.032 158.656 28.78 159.316 28.276C159.988 27.772 160.324 27.028 160.324 26.044C160.324 25.072 159.976 24.304 159.28 23.74C158.596 23.164 157.66 22.516 156.472 21.796C155.5 21.208 154.546 20.584 153.61 19.924C152.674 19.252 151.894 18.436 151.27 17.476C150.658 16.504 150.352 15.28 150.352 13.804C150.352 11.824 150.982 10.198 152.242 8.926C153.514 7.642 155.356 7 157.768 7C158.992 7 160.03 7.144 160.882 7.432C161.746 7.72 162.442 8.05 162.97 8.422C163.51 8.794 163.912 9.1 164.176 9.34L162.16 13.012C161.992 12.772 161.71 12.478 161.314 12.13C160.918 11.782 160.432 11.476 159.856 11.212C159.28 10.948 158.644 10.816 157.948 10.816C156.976 10.816 156.244 11.098 155.752 11.662C155.272 12.214 155.032 12.868 155.032 13.624C155.032 14.596 155.386 15.388 156.094 16C156.814 16.612 157.684 17.224 158.704 17.836C159.832 18.508 160.876 19.186 161.836 19.87C162.796 20.542 163.57 21.352 164.158 22.3C164.746 23.236 165.04 24.436 165.04 25.9C165.04 28.096 164.35 29.818 162.97 31.066C161.59 32.302 159.7 32.92 157.3 32.92Z"/>
<path d="M169.115 32.524V7.432H182.219V11.356H173.615V17.224H180.455V21.04H173.615V28.456H182.939V32.524H169.115Z"/>
<path d="M204.197 33.028L192.173 19.312L191.057 17.872L191.237 21.364V32.524H186.809V7H187.205L199.049 20.824L200.309 22.462L200.129 19.024V7.432H204.557V33.028H204.197Z"/>
<path d="M6 7.432V38.024H10.572V20.482L18.672 32.524H24.4351L15.306 19.888L23.856 7.432H18.564L10.572 19.924V7.432H6Z"/>
</mask>
<path d="M24.4351 32.524L35.0551 7H35.4151L46.0711 32.524H41.1751L39.7711 28.888H30.8071L29.4751 32.524H24.4351ZM34.6231 18.556L32.1031 25.396H38.4391L35.8111 18.556L35.1991 16.54L34.6231 18.556Z" fill="#FFFAE2"/>
<path d="M48.0469 32.524V7.432H61.1509V11.392H52.6549V17.98H60.0709V22.012H52.6549V32.524H48.0469Z" fill="#FFFAE2"/>
<path d="M64.3945 32.524V7.432H77.4985V11.392H69.0025V17.98H76.4185V22.012H69.0025V32.524H64.3945Z" fill="#FFFAE2"/>
<path d="M80.9787 32.524V7.432H94.0827V11.356H85.4787V17.224H92.3187V21.04H85.4787V28.456H94.8027V32.524H80.9787Z" fill="#FFFAE2"/>
<path d="M98.6719 38.024V7.432H103.244V19.924L111.236 7.432H116.528L107.978 19.888L117.104 32.524H111.344L103.244 20.482V38.024H98.6719Z" fill="#FFFAE2"/>
<path d="M137.03 32.524H131.45L125.006 23.452V32.524H120.434V7.432H127.418C129.122 7.432 130.646 7.684 131.99 8.188C133.334 8.68 134.396 9.508 135.176 10.672C135.956 11.836 136.346 13.42 136.346 15.424C136.346 16.516 136.16 17.644 135.788 18.808C135.428 19.96 134.822 20.992 133.97 21.904C133.13 22.816 131.99 23.452 130.55 23.812L137.03 32.524ZM125.006 21.184H126.914C127.97 21.184 128.852 20.938 129.56 20.446C130.28 19.942 130.82 19.288 131.18 18.484C131.552 17.668 131.738 16.792 131.738 15.856C131.738 14.236 131.366 13.03 130.622 12.238C129.878 11.434 128.606 11.032 126.806 11.032H125.006V21.184Z" fill="#FFFAE2"/>
<path d="M141.131 32.524V7.432H145.739V32.524H141.131Z" fill="#FFFAE2"/>
<path d="M157.3 32.92C155.536 32.92 153.994 32.626 152.674 32.038C151.354 31.45 150.388 30.832 149.776 30.184L151.612 26.404C151.864 26.728 152.26 27.094 152.8 27.502C153.352 27.91 153.988 28.27 154.708 28.582C155.44 28.882 156.196 29.032 156.976 29.032C157.876 29.032 158.656 28.78 159.316 28.276C159.988 27.772 160.324 27.028 160.324 26.044C160.324 25.072 159.976 24.304 159.28 23.74C158.596 23.164 157.66 22.516 156.472 21.796C155.5 21.208 154.546 20.584 153.61 19.924C152.674 19.252 151.894 18.436 151.27 17.476C150.658 16.504 150.352 15.28 150.352 13.804C150.352 11.824 150.982 10.198 152.242 8.926C153.514 7.642 155.356 7 157.768 7C158.992 7 160.03 7.144 160.882 7.432C161.746 7.72 162.442 8.05 162.97 8.422C163.51 8.794 163.912 9.1 164.176 9.34L162.16 13.012C161.992 12.772 161.71 12.478 161.314 12.13C160.918 11.782 160.432 11.476 159.856 11.212C159.28 10.948 158.644 10.816 157.948 10.816C156.976 10.816 156.244 11.098 155.752 11.662C155.272 12.214 155.032 12.868 155.032 13.624C155.032 14.596 155.386 15.388 156.094 16C156.814 16.612 157.684 17.224 158.704 17.836C159.832 18.508 160.876 19.186 161.836 19.87C162.796 20.542 163.57 21.352 164.158 22.3C164.746 23.236 165.04 24.436 165.04 25.9C165.04 28.096 164.35 29.818 162.97 31.066C161.59 32.302 159.7 32.92 157.3 32.92Z" fill="#FFFAE2"/>
<path d="M169.115 32.524V7.432H182.219V11.356H173.615V17.224H180.455V21.04H173.615V28.456H182.939V32.524H169.115Z" fill="#FFFAE2"/>
<path d="M204.197 33.028L192.173 19.312L191.057 17.872L191.237 21.364V32.524H186.809V7H187.205L199.049 20.824L200.309 22.462L200.129 19.024V7.432H204.557V33.028H204.197Z" fill="#FFFAE2"/>
<path d="M6 7.432V38.024H10.572V20.482L18.672 32.524H24.4351L15.306 19.888L23.856 7.432H18.564L10.572 19.924V7.432H6Z" fill="#FFFAE2"/>
<path d="M35.0551 7V6H34.3881L34.1318 6.61585L35.0551 7ZM35.4151 7L36.3379 6.61474L36.0813 6H35.4151V7ZM46.0711 32.524V33.524H47.5722L46.9939 32.1387L46.0711 32.524ZM41.1751 32.524L40.2422 32.8842L40.4893 33.524H41.1751V32.524ZM39.7711 28.888L40.704 28.5278L40.4569 27.888H39.7711V28.888ZM30.8071 28.888V27.888H30.1084L29.8681 28.544L30.8071 28.888ZM29.4751 32.524V33.524H30.1737L30.4141 32.868L29.4751 32.524ZM34.6231 18.556L35.5614 18.9017L35.5744 18.8666L35.5846 18.8307L34.6231 18.556ZM32.1031 25.396L31.1648 25.0503L30.669 26.396H32.1031V25.396ZM38.4391 25.396V26.396H39.8946L39.3726 25.0374L38.4391 25.396ZM35.8111 18.556L34.8542 18.8465L34.8647 18.881L34.8776 18.9147L35.8111 18.556ZM35.1991 16.54L36.156 16.2495L35.17 13.0017L34.2376 16.2653L35.1991 16.54ZM48.0469 32.524H47.0469V33.524H48.0469V32.524ZM48.0469 7.432V6.432H47.0469V7.432H48.0469ZM61.1509 7.432H62.1509V6.432H61.1509V7.432ZM61.1509 11.392V12.392H62.1509V11.392H61.1509ZM52.6549 11.392V10.392H51.6549V11.392H52.6549ZM52.6549 17.98H51.6549V18.98H52.6549V17.98ZM60.0709 17.98H61.0709V16.98H60.0709V17.98ZM60.0709 22.012V23.012H61.0709V22.012H60.0709ZM52.6549 22.012V21.012H51.6549V22.012H52.6549ZM52.6549 32.524V33.524H53.6549V32.524H52.6549ZM64.3945 32.524H63.3945V33.524H64.3945V32.524ZM64.3945 7.432V6.432H63.3945V7.432H64.3945ZM77.4985 7.432H78.4985V6.432H77.4985V7.432ZM77.4985 11.392V12.392H78.4985V11.392H77.4985ZM69.0025 11.392V10.392H68.0025V11.392H69.0025ZM69.0025 17.98H68.0025V18.98H69.0025V17.98ZM76.4185 17.98H77.4185V16.98H76.4185V17.98ZM76.4185 22.012V23.012H77.4185V22.012H76.4185ZM69.0025 22.012V21.012H68.0025V22.012H69.0025ZM69.0025 32.524V33.524H70.0025V32.524H69.0025ZM80.9787 32.524H79.9787V33.524H80.9787V32.524ZM80.9787 7.432V6.432H79.9787V7.432H80.9787ZM94.0827 7.432H95.0827V6.432H94.0827V7.432ZM94.0827 11.356V12.356H95.0827V11.356H94.0827ZM85.4787 11.356V10.356H84.4787V11.356H85.4787ZM85.4787 17.224H84.4787V18.224H85.4787V17.224ZM92.3187 17.224H93.3187V16.224H92.3187V17.224ZM92.3187 21.04V22.04H93.3187V21.04H92.3187ZM85.4787 21.04V20.04H84.4787V21.04H85.4787ZM85.4787 28.456H84.4787V29.456H85.4787V28.456ZM94.8027 28.456H95.8027V27.456H94.8027V28.456ZM94.8027 32.524V33.524H95.8027V32.524H94.8027ZM98.6719 38.024H97.6719V39.024H98.6719V38.024ZM98.6719 7.432V6.432H97.6719V7.432H98.6719ZM103.244 7.432H104.244V6.432H103.244V7.432ZM103.244 19.924H102.244V23.3426L104.086 20.4629L103.244 19.924ZM111.236 7.432V6.432H110.689L110.394 6.89308L111.236 7.432ZM116.528 7.432L117.352 7.99792L118.427 6.432H116.528V7.432ZM107.978 19.888L107.153 19.3221L106.755 19.9026L107.167 20.4735L107.978 19.888ZM117.104 32.524V33.524H119.06L117.915 31.9385L117.104 32.524ZM111.344 32.524L110.514 33.0821L110.811 33.524H111.344V32.524ZM103.244 20.482L104.074 19.9239L102.244 17.2036V20.482H103.244ZM103.244 38.024V39.024H104.244V38.024H103.244ZM137.03 32.524V33.524H139.02L137.832 31.9272L137.03 32.524ZM131.45 32.524L130.634 33.1031L130.933 33.524H131.45V32.524ZM125.006 23.452L125.821 22.8729L124.006 20.3173V23.452H125.006ZM125.006 32.524V33.524H126.006V32.524H125.006ZM120.434 32.524H119.434V33.524H120.434V32.524ZM120.434 7.432V6.432H119.434V7.432H120.434ZM131.99 8.188L131.638 9.12436L131.646 9.12706L131.99 8.188ZM135.176 10.672L136.006 10.1153V10.1153L135.176 10.672ZM135.788 18.808L134.835 18.5036L134.833 18.5097L135.788 18.808ZM133.97 21.904L133.239 21.2213L133.234 21.2265L133.97 21.904ZM130.55 23.812L130.307 22.8419L128.852 23.2056L129.747 24.4088L130.55 23.812ZM125.006 21.184H124.006V22.184H125.006V21.184ZM129.56 20.446L130.13 21.2672L130.133 21.2652L129.56 20.446ZM131.18 18.484L130.27 18.0692L130.267 18.0753L131.18 18.484ZM130.622 12.238L129.888 12.9172L129.893 12.9227L130.622 12.238ZM125.006 11.032V10.032H124.006V11.032H125.006ZM141.131 32.524H140.131V33.524H141.131V32.524ZM141.131 7.432V6.432H140.131V7.432H141.131ZM145.739 7.432H146.739V6.432H145.739V7.432ZM145.739 32.524V33.524H146.739V32.524H145.739ZM152.674 32.038L152.267 32.9515L152.674 32.038ZM149.776 30.184L148.876 29.7471L148.575 30.3684L149.049 30.8706L149.776 30.184ZM151.612 26.404L152.401 25.7901L151.415 24.5215L150.712 25.9671L151.612 26.404ZM152.8 27.502L152.197 28.2999L152.205 28.3062L152.8 27.502ZM154.708 28.582L154.31 29.4996L154.319 29.5035L154.329 29.5073L154.708 28.582ZM159.316 28.276L158.716 27.476L158.709 27.4812L159.316 28.276ZM159.28 23.74L158.636 24.5049L158.643 24.511L158.65 24.5169L159.28 23.74ZM156.472 21.796L156.99 20.9408L156.989 20.9404L156.472 21.796ZM153.61 19.924L153.027 20.7364L153.034 20.7413L153.61 19.924ZM151.27 17.476L150.424 18.0088L150.427 18.0149L150.431 18.021L151.27 17.476ZM152.242 8.926L151.531 8.22222L151.531 8.22225L152.242 8.926ZM160.882 7.432L160.562 8.37935L160.566 8.38068L160.882 7.432ZM162.97 8.422L162.394 9.23953L162.403 9.24551L162.97 8.422ZM164.176 9.34L165.052 9.82126L165.432 9.13029L164.849 8.60006L164.176 9.34ZM162.16 13.012L161.341 13.5855L162.263 14.9026L163.036 13.4933L162.16 13.012ZM161.314 12.13L160.654 12.8812V12.8812L161.314 12.13ZM159.856 11.212L159.439 12.1211V12.1211L159.856 11.212ZM155.752 11.662L154.998 11.0046L154.997 11.0058L155.752 11.662ZM156.094 16L155.44 16.7566L155.446 16.7619L156.094 16ZM158.704 17.836L158.189 18.6935L158.192 18.6951L158.704 17.836ZM161.836 19.87L161.256 20.6845L161.262 20.6892L161.836 19.87ZM164.158 22.3L163.308 22.8271L163.311 22.832L164.158 22.3ZM162.97 31.066L163.637 31.8109L163.641 31.8077L162.97 31.066ZM169.115 32.524H168.115V33.524H169.115V32.524ZM169.115 7.432V6.432H168.115V7.432H169.115ZM182.219 7.432H183.219V6.432H182.219V7.432ZM182.219 11.356V12.356H183.219V11.356H182.219ZM173.615 11.356V10.356H172.615V11.356H173.615ZM173.615 17.224H172.615V18.224H173.615V17.224ZM180.455 17.224H181.455V16.224H180.455V17.224ZM180.455 21.04V22.04H181.455V21.04H180.455ZM173.615 21.04V20.04H172.615V21.04H173.615ZM173.615 28.456H172.615V29.456H173.615V28.456ZM182.939 28.456H183.939V27.456H182.939V28.456ZM182.939 32.524V33.524H183.939V32.524H182.939ZM204.197 33.028L203.445 33.6872L203.743 34.028H204.197V33.028ZM192.173 19.312L191.382 19.9246L191.401 19.9485L191.421 19.9712L192.173 19.312ZM191.057 17.872L191.847 17.2594L189.894 14.7391L190.058 17.9235L191.057 17.872ZM191.237 21.364H192.237V21.3382L192.235 21.3125L191.237 21.364ZM191.237 32.524V33.524H192.237V32.524H191.237ZM186.809 32.524H185.809V33.524H186.809V32.524ZM186.809 7V6H185.809V7H186.809ZM187.205 7L187.964 6.34937L187.665 6H187.205V7ZM199.049 20.824L199.841 20.2143L199.825 20.1934L199.808 20.1734L199.049 20.824ZM200.309 22.462L199.516 23.0717L201.475 25.6188L201.307 22.4097L200.309 22.462ZM200.129 19.024H199.129V19.0502L199.13 19.0763L200.129 19.024ZM200.129 7.432V6.432H199.129V7.432H200.129ZM204.557 7.432H205.557V6.432H204.557V7.432ZM204.557 33.028V34.028H205.557V33.028H204.557ZM6 38.024H5V39.024H6V38.024ZM6 7.432V6.432H5V7.432H6ZM10.572 7.432H11.572V6.432H10.572V7.432ZM10.572 19.924H9.572V23.3426L11.4144 20.4629L10.572 19.924ZM18.564 7.432V6.432H18.0166L17.7216 6.89308L18.564 7.432ZM23.856 7.432L24.6805 7.99792L25.7553 6.432H23.856V7.432ZM15.306 19.888L14.4815 19.3221L14.083 19.9027L14.4954 20.4736L15.306 19.888ZM18.672 32.524L17.8422 33.0821L18.1395 33.524H18.672V32.524ZM10.572 20.482L11.4018 19.9239L9.572 17.2036V20.482H10.572ZM10.572 38.024V39.024H11.572V38.024H10.572ZM24.4351 32.524L25.3584 32.9082L35.9784 7.38415L35.0551 7L34.1318 6.61585L23.5118 32.1398L24.4351 32.524ZM35.0551 7V8H35.4151V7V6H35.0551V7ZM35.4151 7L34.4923 7.38526L45.1483 32.9093L46.0711 32.524L46.9939 32.1387L36.3379 6.61474L35.4151 7ZM46.0711 32.524V31.524H41.1751V32.524V33.524H46.0711V32.524ZM41.1751 32.524L42.108 32.1638L40.704 28.5278L39.7711 28.888L38.8382 29.2482L40.2422 32.8842L41.1751 32.524ZM39.7711 28.888V27.888H30.8071V28.888V29.888H39.7711V28.888ZM30.8071 28.888L29.8681 28.544L28.5361 32.18L29.4751 32.524L30.4141 32.868L31.7461 29.232L30.8071 28.888ZM29.4751 32.524V31.524H24.4351V32.524V33.524H29.4751V32.524ZM34.6231 18.556L33.6848 18.2103L31.1648 25.0503L32.1031 25.396L33.0414 25.7417L35.5614 18.9017L34.6231 18.556ZM32.1031 25.396V26.396H38.4391V25.396V24.396H32.1031V25.396ZM38.4391 25.396L39.3726 25.0374L36.7446 18.1974L35.8111 18.556L34.8776 18.9147L37.5056 25.7547L38.4391 25.396ZM35.8111 18.556L36.768 18.2655L36.156 16.2495L35.1991 16.54L34.2422 16.8305L34.8542 18.8465L35.8111 18.556ZM35.1991 16.54L34.2376 16.2653L33.6616 18.2813L34.6231 18.556L35.5846 18.8307L36.1606 16.8147L35.1991 16.54ZM48.0469 32.524H49.0469V7.432H48.0469H47.0469V32.524H48.0469ZM48.0469 7.432V8.432H61.1509V7.432V6.432H48.0469V7.432ZM61.1509 7.432H60.1509V11.392H61.1509H62.1509V7.432H61.1509ZM61.1509 11.392V10.392H52.6549V11.392V12.392H61.1509V11.392ZM52.6549 11.392H51.6549V17.98H52.6549H53.6549V11.392H52.6549ZM52.6549 17.98V18.98H60.0709V17.98V16.98H52.6549V17.98ZM60.0709 17.98H59.0709V22.012H60.0709H61.0709V17.98H60.0709ZM60.0709 22.012V21.012H52.6549V22.012V23.012H60.0709V22.012ZM52.6549 22.012H51.6549V32.524H52.6549H53.6549V22.012H52.6549ZM52.6549 32.524V31.524H48.0469V32.524V33.524H52.6549V32.524ZM64.3945 32.524H65.3945V7.432H64.3945H63.3945V32.524H64.3945ZM64.3945 7.432V8.432H77.4985V7.432V6.432H64.3945V7.432ZM77.4985 7.432H76.4985V11.392H77.4985H78.4985V7.432H77.4985ZM77.4985 11.392V10.392H69.0025V11.392V12.392H77.4985V11.392ZM69.0025 11.392H68.0025V17.98H69.0025H70.0025V11.392H69.0025ZM69.0025 17.98V18.98H76.4185V17.98V16.98H69.0025V17.98ZM76.4185 17.98H75.4185V22.012H76.4185H77.4185V17.98H76.4185ZM76.4185 22.012V21.012H69.0025V22.012V23.012H76.4185V22.012ZM69.0025 22.012H68.0025V32.524H69.0025H70.0025V22.012H69.0025ZM69.0025 32.524V31.524H64.3945V32.524V33.524H69.0025V32.524ZM80.9787 32.524H81.9787V7.432H80.9787H79.9787V32.524H80.9787ZM80.9787 7.432V8.432H94.0827V7.432V6.432H80.9787V7.432ZM94.0827 7.432H93.0827V11.356H94.0827H95.0827V7.432H94.0827ZM94.0827 11.356V10.356H85.4787V11.356V12.356H94.0827V11.356ZM85.4787 11.356H84.4787V17.224H85.4787H86.4787V11.356H85.4787ZM85.4787 17.224V18.224H92.3187V17.224V16.224H85.4787V17.224ZM92.3187 17.224H91.3187V21.04H92.3187H93.3187V17.224H92.3187ZM92.3187 21.04V20.04H85.4787V21.04V22.04H92.3187V21.04ZM85.4787 21.04H84.4787V28.456H85.4787H86.4787V21.04H85.4787ZM85.4787 28.456V29.456H94.8027V28.456V27.456H85.4787V28.456ZM94.8027 28.456H93.8027V32.524H94.8027H95.8027V28.456H94.8027ZM94.8027 32.524V31.524H80.9787V32.524V33.524H94.8027V32.524ZM98.6719 38.024H99.6719V7.432H98.6719H97.6719V38.024H98.6719ZM98.6719 7.432V8.432H103.244V7.432V6.432H98.6719V7.432ZM103.244 7.432H102.244V19.924H103.244H104.244V7.432H103.244ZM103.244 19.924L104.086 20.4629L112.078 7.97092L111.236 7.432L110.394 6.89308L102.402 19.3851L103.244 19.924ZM111.236 7.432V8.432H116.528V7.432V6.432H111.236V7.432ZM116.528 7.432L115.703 6.86608L107.153 19.3221L107.978 19.888L108.802 20.4539L117.352 7.99792L116.528 7.432ZM107.978 19.888L107.167 20.4735L116.293 33.1095L117.104 32.524L117.915 31.9385L108.789 19.3025L107.978 19.888ZM117.104 32.524V31.524H111.344V32.524V33.524H117.104V32.524ZM111.344 32.524L112.174 31.9659L104.074 19.9239L103.244 20.482L102.414 21.0401L110.514 33.0821L111.344 32.524ZM103.244 20.482H102.244V38.024H103.244H104.244V20.482H103.244ZM103.244 38.024V37.024H98.6719V38.024V39.024H103.244V38.024ZM137.03 32.524V31.524H131.45V32.524V33.524H137.03V32.524ZM131.45 32.524L132.265 31.9449L125.821 22.8729L125.006 23.452L124.19 24.0311L130.634 33.1031L131.45 32.524ZM125.006 23.452H124.006V32.524H125.006H126.006V23.452H125.006ZM125.006 32.524V31.524H120.434V32.524V33.524H125.006V32.524ZM120.434 32.524H121.434V7.432H120.434H119.434V32.524H120.434ZM120.434 7.432V8.432H127.418V7.432V6.432H120.434V7.432ZM127.418 7.432V8.432C129.024 8.432 130.426 8.6695 131.638 9.12433L131.99 8.188L132.341 7.25167C130.866 6.6985 129.22 6.432 127.418 6.432V7.432ZM131.99 8.188L131.646 9.12706C132.796 9.548 133.685 10.2444 134.345 11.2287L135.176 10.672L136.006 10.1153C135.106 8.77155 133.871 7.812 132.333 7.24894L131.99 8.188ZM135.176 10.672L134.345 11.2287C134.977 12.1713 135.346 13.5367 135.346 15.424H136.346H137.346C137.346 13.3033 136.935 11.5007 136.006 10.1153L135.176 10.672ZM136.346 15.424H135.346C135.346 16.4012 135.179 17.4264 134.835 18.5036L135.788 18.808L136.74 19.1124C137.14 17.8616 137.346 16.6308 137.346 15.424H136.346ZM135.788 18.808L134.833 18.5097C134.519 19.5135 133.992 20.4152 133.239 21.2213L133.97 21.904L134.7 22.5867C135.651 21.5688 136.336 20.4065 136.742 19.1063L135.788 18.808ZM133.97 21.904L133.234 21.2265C132.55 21.9687 131.596 22.5197 130.307 22.8419L130.55 23.812L130.792 24.7821C132.384 24.3843 133.709 23.6633 134.705 22.5815L133.97 21.904ZM130.55 23.812L129.747 24.4088L136.227 33.1208L137.03 32.524L137.832 31.9272L131.352 23.2152L130.55 23.812ZM125.006 21.184V22.184H126.914V21.184V20.184H125.006V21.184ZM126.914 21.184V22.184C128.127 22.184 129.22 21.8996 130.13 21.2672L129.56 20.446L128.989 19.6248C128.483 19.9764 127.812 20.184 126.914 20.184V21.184ZM129.56 20.446L130.133 21.2652C131.002 20.6573 131.659 19.8613 132.092 18.8927L131.18 18.484L130.267 18.0753C129.981 18.7147 129.558 19.2267 128.986 19.6268L129.56 20.446ZM131.18 18.484L132.09 18.8988C132.523 17.9469 132.738 16.9287 132.738 15.856H131.738H130.738C130.738 16.6553 130.58 17.3891 130.27 18.0692L131.18 18.484ZM131.738 15.856H132.738C132.738 14.1041 132.338 12.6041 131.35 11.5533L130.622 12.238L129.893 12.9227C130.394 13.4559 130.738 14.3679 130.738 15.856H131.738ZM130.622 12.238L131.356 11.5588C130.33 10.451 128.712 10.032 126.806 10.032V11.032V12.032C128.5 12.032 129.425 12.417 129.888 12.9172L130.622 12.238ZM126.806 11.032V10.032H125.006V11.032V12.032H126.806V11.032ZM125.006 11.032H124.006V21.184H125.006H126.006V11.032H125.006ZM141.131 32.524H142.131V7.432H141.131H140.131V32.524H141.131ZM141.131 7.432V8.432H145.739V7.432V6.432H141.131V7.432ZM145.739 7.432H144.739V32.524H145.739H146.739V7.432H145.739ZM145.739 32.524V31.524H141.131V32.524V33.524H145.739V32.524ZM157.3 32.92V31.92C155.646 31.92 154.248 31.6443 153.081 31.1245L152.674 32.038L152.267 32.9515C153.74 33.6077 155.426 33.92 157.3 33.92V32.92ZM152.674 32.038L153.081 31.1245C151.816 30.561 150.985 30.0081 150.503 29.4974L149.776 30.184L149.049 30.8706C149.79 31.6559 150.892 32.339 152.267 32.9515L152.674 32.038ZM149.776 30.184L150.675 30.6209L152.511 26.8409L151.612 26.404L150.712 25.9671L148.876 29.7471L149.776 30.184ZM151.612 26.404L150.822 27.0179C151.152 27.4413 151.626 27.8684 152.197 28.2999L152.8 27.502L153.403 26.7041C152.894 26.3196 152.576 26.0147 152.401 25.7901L151.612 26.404ZM152.8 27.502L152.205 28.3062C152.826 28.7652 153.53 29.1616 154.31 29.4996L154.708 28.582L155.105 27.6644C154.445 27.3784 153.877 27.0548 153.394 26.6978L152.8 27.502ZM154.708 28.582L154.329 29.5073C155.179 29.8559 156.064 30.032 156.976 30.032V29.032V28.032C156.328 28.032 155.7 27.9081 155.087 27.6567L154.708 28.582ZM156.976 29.032V30.032C158.076 30.032 159.074 29.7193 159.923 29.0708L159.316 28.276L158.709 27.4812C158.238 27.8407 157.676 28.032 156.976 28.032V29.032ZM159.316 28.276L159.916 29.076C160.885 28.3493 161.324 27.2816 161.324 26.044H160.324H159.324C159.324 26.7744 159.091 27.1947 158.716 27.476L159.316 28.276ZM160.324 26.044H161.324C161.324 24.7997 160.862 23.7347 159.909 22.9631L159.28 23.74L158.65 24.5169C159.09 24.8733 159.324 25.3443 159.324 26.044H160.324ZM159.28 23.74L159.924 22.9751C159.185 22.3529 158.201 21.6747 156.99 20.9408L156.472 21.796L155.954 22.6512C157.119 23.3573 158.007 23.9751 158.636 24.5049L159.28 23.74ZM156.472 21.796L156.989 20.9404C156.038 20.3646 155.103 19.7534 154.186 19.1067L153.61 19.924L153.034 20.7413C153.989 21.4146 154.962 22.0514 155.954 22.6516L156.472 21.796ZM153.61 19.924L154.193 19.1117C153.357 18.5117 152.664 17.7861 152.108 16.931L151.27 17.476L150.431 18.021C151.124 19.0859 151.99 19.9923 153.027 20.7363L153.61 19.924ZM151.27 17.476L152.116 16.9432C151.629 16.1704 151.352 15.1445 151.352 13.804H150.352H149.352C149.352 15.4155 149.686 16.8376 150.424 18.0088L151.27 17.476ZM150.352 13.804H151.352C151.352 12.057 151.898 10.6938 152.952 9.62975L152.242 8.926L151.531 8.22225C150.065 9.70216 149.352 11.591 149.352 13.804H150.352ZM152.242 8.926L152.952 9.62978C153.98 8.59218 155.53 8 157.768 8V7V6C155.181 6 153.048 6.69182 151.531 8.22222L152.242 8.926ZM157.768 7V8C158.919 8 159.842 8.13626 160.562 8.37934L160.882 7.432L161.202 6.48466C160.217 6.15174 159.064 6 157.768 6V7ZM160.882 7.432L160.566 8.38068C161.372 8.64941 161.971 8.94141 162.394 9.23948L162.97 8.422L163.546 7.60452C162.913 7.15859 162.12 6.79059 161.198 6.48332L160.882 7.432ZM162.97 8.422L162.403 9.24551C162.931 9.60935 163.289 9.88537 163.503 10.0799L164.176 9.34L164.849 8.60006C164.535 8.31463 164.089 7.97865 163.537 7.59849L162.97 8.422ZM164.176 9.34L163.299 8.85874L161.283 12.5307L162.16 13.012L163.036 13.4933L165.052 9.82126L164.176 9.34ZM162.16 13.012L162.979 12.4385C162.743 12.1008 162.39 11.7448 161.974 11.3788L161.314 12.13L160.654 12.8812C161.029 13.2112 161.241 13.4432 161.341 13.5855L162.16 13.012ZM161.314 12.13L161.974 11.3788C161.492 10.9552 160.92 10.5996 160.273 10.3029L159.856 11.212L159.439 12.1211C159.944 12.3524 160.344 12.6088 160.654 12.8812L161.314 12.13ZM159.856 11.212L160.273 10.3029C159.553 9.97333 158.773 9.816 157.948 9.816V10.816V11.816C158.514 11.816 159.006 11.9227 159.439 12.1211L159.856 11.212ZM157.948 10.816V9.816C156.779 9.816 155.733 10.1621 154.998 11.0046L155.752 11.662L156.505 12.3194C156.754 12.0339 157.173 11.816 157.948 11.816V10.816ZM155.752 11.662L154.997 11.0058C154.353 11.7464 154.032 12.6357 154.032 13.624H155.032H156.032C156.032 13.1003 156.19 12.6816 156.506 12.3182L155.752 11.662ZM155.032 13.624H154.032C154.032 14.8736 154.503 15.9463 155.44 16.7565L156.094 16L156.748 15.2435C156.269 14.8297 156.032 14.3184 156.032 13.624H155.032ZM156.094 16L155.446 16.7619C156.217 17.4171 157.134 18.0602 158.189 18.6935L158.704 17.836L159.218 16.9785C158.234 16.3878 157.411 15.8069 156.741 15.2381L156.094 16ZM158.704 17.836L158.192 18.6951C159.299 19.3547 160.32 20.0179 161.256 20.6844L161.836 19.87L162.416 19.0556C161.432 18.3541 160.364 17.6613 159.216 16.9769L158.704 17.836ZM161.836 19.87L161.262 20.6892C162.117 21.2876 162.795 21.9999 163.308 22.8271L164.158 22.3L165.008 21.7729C164.345 20.7041 163.475 19.7964 162.409 19.0508L161.836 19.87ZM164.158 22.3L163.311 22.832C163.771 23.5647 164.04 24.5646 164.04 25.9H165.04H166.04C166.04 24.3074 165.72 22.9073 165.005 21.7681L164.158 22.3ZM165.04 25.9H164.04C164.04 27.8691 163.431 29.3003 162.299 30.3243L162.97 31.066L163.641 31.8077C165.268 30.3357 166.04 28.3229 166.04 25.9H165.04ZM162.97 31.066L162.303 30.3211C161.155 31.349 159.528 31.92 157.3 31.92V32.92V33.92C159.871 33.92 162.025 33.255 163.637 31.8109L162.97 31.066ZM169.115 32.524H170.115V7.432H169.115H168.115V32.524H169.115ZM169.115 7.432V8.432H182.219V7.432V6.432H169.115V7.432ZM182.219 7.432H181.219V11.356H182.219H183.219V7.432H182.219ZM182.219 11.356V10.356H173.615V11.356V12.356H182.219V11.356ZM173.615 11.356H172.615V17.224H173.615H174.615V11.356H173.615ZM173.615 17.224V18.224H180.455V17.224V16.224H173.615V17.224ZM180.455 17.224H179.455V21.04H180.455H181.455V17.224H180.455ZM180.455 21.04V20.04H173.615V21.04V22.04H180.455V21.04ZM173.615 21.04H172.615V28.456H173.615H174.615V21.04H173.615ZM173.615 28.456V29.456H182.939V28.456V27.456H173.615V28.456ZM182.939 28.456H181.939V32.524H182.939H183.939V28.456H182.939ZM182.939 32.524V31.524H169.115V32.524V33.524H182.939V32.524ZM204.197 33.028L204.949 32.3688L192.925 18.6528L192.173 19.312L191.421 19.9712L203.445 33.6872L204.197 33.028ZM192.173 19.312L192.963 18.6994L191.847 17.2594L191.057 17.872L190.266 18.4846L191.382 19.9246L192.173 19.312ZM191.057 17.872L190.058 17.9235L190.238 21.4155L191.237 21.364L192.235 21.3125L192.055 17.8205L191.057 17.872ZM191.237 21.364H190.237V32.524H191.237H192.237V21.364H191.237ZM191.237 32.524V31.524H186.809V32.524V33.524H191.237V32.524ZM186.809 32.524H187.809V7H186.809H185.809V32.524H186.809ZM186.809 7V8H187.205V7V6H186.809V7ZM187.205 7L186.445 7.65063L198.289 21.4746L199.049 20.824L199.808 20.1734L187.964 6.34937L187.205 7ZM199.049 20.824L198.256 21.4337L199.516 23.0717L200.309 22.462L201.101 21.8523L199.841 20.2143L199.049 20.824ZM200.309 22.462L201.307 22.4097L201.127 18.9717L200.129 19.024L199.13 19.0763L199.31 22.5143L200.309 22.462ZM200.129 19.024H201.129V7.432H200.129H199.129V19.024H200.129ZM200.129 7.432V8.432H204.557V7.432V6.432H200.129V7.432ZM204.557 7.432H203.557V33.028H204.557H205.557V7.432H204.557ZM204.557 33.028V32.028H204.197V33.028V34.028H204.557V33.028ZM6 38.024H7V7.432H6H5V38.024H6ZM6 7.432V8.432H10.572V7.432V6.432H6V7.432ZM10.572 7.432H9.572V19.924H10.572H11.572V7.432H10.572ZM10.572 19.924L11.4144 20.4629L19.4064 7.97092L18.564 7.432L17.7216 6.89308L9.72964 19.3851L10.572 19.924ZM18.564 7.432V8.432H23.856V7.432V6.432H18.564V7.432ZM23.856 7.432L23.0315 6.86608L14.4815 19.3221L15.306 19.888L16.1305 20.4539L24.6805 7.99792L23.856 7.432ZM15.306 19.888L14.4954 20.4736L23.6245 33.1096L24.4351 32.524L25.2457 31.9384L16.1166 19.3024L15.306 19.888ZM24.4351 32.524V31.524H18.672V32.524V33.524H24.4351V32.524ZM18.672 32.524L19.5018 31.9659L11.4018 19.9239L10.572 20.482L9.74225 21.0401L17.8422 33.0821L18.672 32.524ZM10.572 20.482H9.572V38.024H10.572H11.572V20.482H10.572ZM10.572 38.024V37.024H6V38.024V39.024H10.572V38.024Z" fill="#FFFAE2" mask="url(#path-1-outside-1_0_1)"/>
</g>
<defs>
<filter id="filter0_g_0_1" x="4" y="5" width="202.557" height="35.024" filterUnits="userSpaceOnUse" color-interpolation-filters="sRGB">
<feFlood flood-opacity="0" result="BackgroundImageFix"/>
<feBlend mode="normal" in="SourceGraphic" in2="BackgroundImageFix" result="shape"/>
<feTurbulence type="fractalNoise" baseFrequency="0.25 0.25" numOctaves="3" seed="3514" />
<feDisplacementMap in="shape" scale="2" xChannelSelector="R" yChannelSelector="G" result="displacedImage" width="100%" height="100%" />
<feMerge result="effect1_texture_0_1">
<feMergeNode in="displacedImage"/>
</feMerge>
</filter>
</defs>
</svg>
